<svg width="40" height="36" viewBox="0 0 40 36" fill="none" xmlns="http://www.w3.org/2000/svg">
<path d="M21.9945 3.92707V2.85597H23.448V2.17878C23.448 0.974111 24.541 0 25.8937 0C27.2438 0 28.3368 0.974111 28.3368 2.17878V2.85597H29.7585V3.92707H21.9945ZM40 31.004C40 32.329 39.4533 33.5998 38.4802 34.5367C37.5071 35.4736 36.1874 36 34.8112 36C33.4351 36 32.1153 35.4736 31.1422 34.5367C30.1691 33.5998 29.6224 32.329 29.6224 31.004C29.6224 29.6789 30.1691 28.4082 31.1422 27.4712C32.1153 26.5343 33.4351 26.0079 34.8112 26.0079C36.1874 26.0079 37.5071 26.5343 38.4802 27.4712C39.4533 28.4082 40 29.6789 40 31.004ZM37.2936 31.004C37.2936 30.3703 37.0322 29.7625 36.5668 29.3144C36.1014 28.8664 35.4702 28.6146 34.8121 28.6146C34.1539 28.6146 33.5228 28.8664 33.0574 29.3144C32.592 29.7625 32.3306 30.3703 32.3306 31.004C32.3243 31.3215 32.3839 31.6371 32.5058 31.9322C32.6278 32.2274 32.8095 32.4961 33.0406 32.7228C33.2716 32.9495 33.5473 33.1296 33.8515 33.2526C34.1556 33.3755 34.4822 33.4388 34.8121 33.4388C35.142 33.4388 35.4685 33.3755 35.7727 33.2526C36.0769 33.1296 36.3525 32.9495 36.5836 32.7228C36.8146 32.4961 36.9964 32.2274 37.1183 31.9322C37.2402 31.6371 37.2998 31.3215 37.2936 31.004ZM10.2862 30.9563C10.2862 31.6126 10.152 32.2625 9.89106 32.8688C9.63017 33.4751 9.24777 34.026 8.76572 34.49C8.28367 34.9539 7.7114 35.3219 7.08161 35.5729C6.45182 35.8239 5.77684 35.953 5.09523 35.9528C3.73531 35.9286 2.43956 35.3915 1.4867 34.457C0.533844 33.5224 0 32.2651 0 30.9555C0 29.6458 0.533844 28.3885 1.4867 27.454C2.43956 26.5194 3.73531 25.9823 5.09523 25.9581C6.47183 25.9586 7.79191 26.4853 8.76531 27.4226C9.73871 28.3598 10.2858 29.6309 10.2862 30.9563ZM7.58868 30.9606C7.58868 30.6467 7.52445 30.3359 7.39965 30.046C7.27486 29.756 7.09194 29.4926 6.86137 29.2708C6.63079 29.0489 6.35707 28.873 6.05585 28.753C5.75462 28.6331 5.4318 28.5714 5.10584 28.5717C4.6147 28.5717 4.1346 28.7119 3.72626 28.9747C3.31792 29.2374 2.99968 29.6109 2.81182 30.0478C2.62395 30.4847 2.57488 30.9655 2.67083 31.4293C2.76677 31.8931 3.00341 32.319 3.35082 32.6533C3.69823 32.9876 4.1408 33.2151 4.62254 33.3072C5.10428 33.3992 5.60356 33.3516 6.05721 33.1704C6.51086 32.9892 6.8985 32.6825 7.17111 32.2892C7.44371 31.8958 7.58903 31.4335 7.58868 30.9606Z" fill="#F8F8F8"/>
</svg>
