<svg width="26" height="25" viewBox="0 0 26 25" fill="none" xmlns="http://www.w3.org/2000/svg">
<path d="M11.3791 0L9.7581 3.70948C9.43391 3.80299 9.14214 3.95885 8.85037 4.11471L4.99252 2.55611L2.65835 4.8005L4.2793 8.50997C4.11721 8.8217 3.98753 9.07107 3.85785 9.38279L0 10.9414V14.0586L3.85785 15.6172C3.98753 15.9289 4.11721 16.1783 4.2793 16.49L2.65835 20.1995L4.99252 22.4439L8.85037 20.8853C9.14214 21.01 9.43391 21.1658 9.7581 21.2905L11.3791 25H14.6209L16.2419 21.2905C16.5337 21.1658 16.8579 21.0411 17.1496 20.8853L21.0075 22.4439L23.3416 20.1995L21.7207 16.49C21.8504 16.2095 22.0125 15.8978 22.1421 15.6172L26 14.0586V10.9414L22.1421 9.38279C22.0449 9.10224 21.8828 8.79052 21.7207 8.50997L23.3416 4.8005L21.0075 2.55611L17.1496 4.11471C16.8579 3.99002 16.5337 3.83416 16.2419 3.70948L14.6209 0L11.3791 0ZM13 7.79302C15.6908 7.79302 17.8628 9.88155 17.8628 12.4688C17.8628 15.0561 15.6908 17.1446 13 17.1446C10.3092 17.1446 8.13716 15.0561 8.13716 12.4688C8.13716 9.88155 10.3092 7.79302 13 7.79302Z" fill="black"/>
</svg>
