<svg width="31" height="41" viewBox="0 0 31 41" fill="none" xmlns="http://www.w3.org/2000/svg">
<path d="M27.125 5.125H20.6667C20.6667 2.29824 18.3497 0 15.5 0C12.6503 0 10.3333 2.29824 10.3333 5.125H3.875C1.73568 5.125 0 6.84668 0 8.96875V37.1562C0 39.2783 1.73568 41 3.875 41H27.125C29.2643 41 31 39.2783 31 37.1562V8.96875C31 6.84668 29.2643 5.125 27.125 5.125ZM7.75 33.9531C6.6763 33.9531 5.8125 33.0963 5.8125 32.0312C5.8125 30.9662 6.6763 30.1094 7.75 30.1094C8.8237 30.1094 9.6875 30.9662 9.6875 32.0312C9.6875 33.0963 8.8237 33.9531 7.75 33.9531ZM7.75 26.2656C6.6763 26.2656 5.8125 25.4088 5.8125 24.3438C5.8125 23.2787 6.6763 22.4219 7.75 22.4219C8.8237 22.4219 9.6875 23.2787 9.6875 24.3438C9.6875 25.4088 8.8237 26.2656 7.75 26.2656ZM7.75 18.5781C6.6763 18.5781 5.8125 17.7213 5.8125 16.6562C5.8125 15.5912 6.6763 14.7344 7.75 14.7344C8.8237 14.7344 9.6875 15.5912 9.6875 16.6562C9.6875 17.7213 8.8237 18.5781 7.75 18.5781ZM15.5 3.20312C16.5737 3.20312 17.4375 4.05996 17.4375 5.125C17.4375 6.19004 16.5737 7.04688 15.5 7.04688C14.4263 7.04688 13.5625 6.19004 13.5625 5.125C13.5625 4.05996 14.4263 3.20312 15.5 3.20312ZM25.8333 32.6719C25.8333 33.0242 25.5427 33.3125 25.1875 33.3125H13.5625C13.2073 33.3125 12.9167 33.0242 12.9167 32.6719V31.3906C12.9167 31.0383 13.2073 30.75 13.5625 30.75H25.1875C25.5427 30.75 25.8333 31.0383 25.8333 31.3906V32.6719ZM25.8333 24.9844C25.8333 25.3367 25.5427 25.625 25.1875 25.625H13.5625C13.2073 25.625 12.9167 25.3367 12.9167 24.9844V23.7031C12.9167 23.3508 13.2073 23.0625 13.5625 23.0625H25.1875C25.5427 23.0625 25.8333 23.3508 25.8333 23.7031V24.9844ZM25.8333 17.2969C25.8333 17.6492 25.5427 17.9375 25.1875 17.9375H13.5625C13.2073 17.9375 12.9167 17.6492 12.9167 17.2969V16.0156C12.9167 15.6633 13.2073 15.375 13.5625 15.375H25.1875C25.5427 15.375 25.8333 15.6633 25.8333 16.0156V17.2969Z" fill="white"/>
</svg>
