<svg width="31" height="35" viewBox="0 0 31 35" fill="none" xmlns="http://www.w3.org/2000/svg">
<path d="M9.42306 16.1538C7.63795 16.1538 5.92595 15.4447 4.66369 14.1824C3.40143 12.9202 2.6923 11.2082 2.6923 9.42306V4.03845C2.6923 3.68143 2.83413 3.33903 3.08658 3.08658C3.33903 2.83413 3.68143 2.6923 4.03845 2.6923H5.3846C5.74162 2.6923 6.08402 2.55048 6.33647 2.29802C6.58893 2.04557 6.73075 1.70317 6.73075 1.34615C6.73075 0.989129 6.58893 0.646731 6.33647 0.394278C6.08402 0.141826 5.74162 0 5.3846 0H4.03845C2.96739 0 1.94019 0.425479 1.18284 1.18284C0.425479 1.94019 0 2.96739 0 4.03845V9.42306C0.00173037 10.9439 0.372577 12.4415 1.08069 13.7874C1.7888 15.1333 2.81302 16.2872 4.06538 17.15C5.2686 18.2108 6.2444 19.5044 6.93387 20.9527C7.62333 22.4011 8.01217 23.9741 8.0769 25.5769C8.0769 28.076 9.06969 30.4728 10.8369 32.24C12.604 34.0071 15.0008 34.9999 17.5 34.9999C19.9991 34.9999 22.3959 34.0071 24.1631 32.24C25.9302 30.4728 26.923 28.076 26.923 25.5769V24.0423C28.192 23.7146 29.2979 22.9354 30.0334 21.8507C30.769 20.766 31.0837 19.4503 30.9185 18.1501C30.7534 16.85 30.1198 15.6547 29.1364 14.7884C28.153 13.922 26.8874 13.444 25.5769 13.444C24.2663 13.444 23.0007 13.922 22.0173 14.7884C21.034 15.6547 20.4003 16.85 20.2352 18.1501C20.07 19.4503 20.3847 20.766 21.1203 21.8507C21.8558 22.9354 22.9618 23.7146 24.2307 24.0423V25.5769C24.2307 27.362 23.5216 29.074 22.2593 30.3362C20.9971 31.5985 19.2851 32.3076 17.5 32.3076C15.7149 32.3076 14.0029 31.5985 12.7406 30.3362C11.4783 29.074 10.7692 27.362 10.7692 25.5769C10.8373 23.9721 11.2304 22.3979 11.9245 20.9494C12.6187 19.5009 13.5995 18.2084 14.8077 17.15C16.055 16.2842 17.074 15.129 17.7773 13.7833C18.4807 12.4376 18.8474 10.9415 18.8461 9.42306V4.03845C18.8461 2.96739 18.4206 1.94019 17.6633 1.18284C16.9059 0.425479 15.8787 0 14.8077 0H13.4615C13.1045 0 12.7621 0.141826 12.5096 0.394278C12.2572 0.646731 12.1154 0.989129 12.1154 1.34615C12.1154 1.70317 12.2572 2.04557 12.5096 2.29802C12.7621 2.55048 13.1045 2.6923 13.4615 2.6923H14.8077C15.1647 2.6923 15.5071 2.83413 15.7595 3.08658C16.012 3.33903 16.1538 3.68143 16.1538 4.03845V9.42306C16.1538 10.307 15.9797 11.1822 15.6415 11.9988C15.3032 12.8154 14.8074 13.5574 14.1824 14.1824C13.5574 14.8074 12.8154 15.3032 11.9988 15.6415C11.1822 15.9797 10.307 16.1538 9.42306 16.1538ZM25.5769 21.5384C24.8628 21.5384 24.178 21.2548 23.6731 20.7499C23.1682 20.2449 22.8846 19.5602 22.8846 18.8461C22.8846 18.1321 23.1682 17.4473 23.6731 16.9424C24.178 16.4375 24.8628 16.1538 25.5769 16.1538C26.2909 16.1538 26.9757 16.4375 27.4806 16.9424C27.9855 17.4473 28.2692 18.1321 28.2692 18.8461C28.2692 19.5602 27.9855 20.2449 27.4806 20.7499C26.9757 21.2548 26.2909 21.5384 25.5769 21.5384Z" fill="#F8F8F8"/>
</svg>
