<svg width="31" height="40" viewBox="0 0 31 40" fill="none" xmlns="http://www.w3.org/2000/svg">
<path d="M30.992 19.985L29.9923 32.2744C29.7365 35.4542 25.0401 35.0167 25.2958 31.8916L26.0708 22.321L22.8856 22.5007C23.6683 24.1179 24.1101 25.9305 24.1101 27.8524C24.1101 31.0712 22.8623 34.001 20.8318 36.1729L17.7861 33.1025C22.2733 28.1258 18.8014 20.0397 12.0512 20.0397C10.0439 20.0397 8.21494 20.8131 6.8432 22.071L3.79747 19.0006C5.50246 17.3833 7.68019 16.2583 10.1059 15.8598L15.9416 9.16433L12.6402 7.22678L8.64119 10.8206C6.3162 12.9144 3.16973 9.37528 5.50246 7.27365L10.7724 2.53132C11.5319 1.8438 12.6402 1.73443 13.5237 2.25007C13.5237 2.25007 24.3193 8.57057 24.3348 8.58619C25.5903 9.37528 25.9391 11.3988 24.8076 12.6957L20.2816 17.8912L28.5043 17.4302C29.938 17.3443 31.1083 18.5552 30.992 19.985ZM25.9623 7.95336C28.14 7.95336 29.907 6.17206 29.907 3.97668C29.907 1.7813 28.14 0 25.9623 0C23.7846 0 22.0176 1.7813 22.0176 3.97668C22.0176 6.17206 23.7846 7.95336 25.9623 7.95336ZM12.0589 35.6651C5.81246 35.6651 2.18548 28.5868 5.64971 23.4694L2.57298 20.3678C0.960993 22.4225 0 25.0242 0 27.8446C0 38.0558 11.6792 43.5794 19.4834 37.4152L16.4066 34.3135C15.1666 35.1651 13.6709 35.6651 12.0589 35.6651Z" fill="white"/>
</svg>
