<svg width="45" height="40" viewBox="0 0 45 40" fill="none" xmlns="http://www.w3.org/2000/svg">
<path d="M16.7428 0.181923C11.6855 1.29541 8.19882 5.7494 8.50951 10.7264C8.63033 12.6666 8.97555 13.8475 10.0284 15.9564C10.8052 17.4748 11.1331 17.9304 12.4967 19.28L14.0847 20.8322L12.9282 21.1865C10.1493 22.0132 6.61084 24.1558 4.38421 26.349C1.77785 28.9303 0.0172607 32.3214 0 34.7171C0 37.2309 6.09302 39.0024 15.7935 39.3398L18.9004 39.441L16.2423 36.826L13.6014 34.211L15.7762 29.0653C16.9672 26.2478 17.9511 23.869 17.9511 23.8015C17.9511 23.734 17.6059 23.2954 17.1744 22.8398C16.7428 22.3675 16.4149 21.9625 16.4494 21.9288C16.4839 21.8951 16.8119 21.9457 17.1744 22.0469C17.8993 22.2494 20.5747 22.165 21.1443 21.9288C21.3514 21.8445 21.1443 22.1819 20.6265 22.7724C20.1432 23.3122 19.7807 23.8352 19.8152 23.9365C19.8325 24.0546 20.8164 26.4165 22.0074 29.2003L24.1477 34.2616L21.5241 36.8598L18.9004 39.441L21.6621 39.3398C23.1811 39.2892 25.4767 39.1542 26.754 39.0361L29.0842 38.8505L31.5007 39.3904C32.8298 39.6941 34.0035 39.964 34.1243 39.9978C34.2279 40.0315 34.4178 39.6772 34.5559 39.1036C34.763 38.2769 34.8493 38.142 35.229 38.0913C35.5742 38.0576 35.7296 38.1757 36.0403 38.7156C36.2647 39.0867 36.5063 39.441 36.6099 39.4917C36.7997 39.6097 41.4083 36.8598 41.4256 36.6236C41.4256 36.5223 41.2357 36.168 40.9941 35.8306C40.2001 34.6834 40.4935 34.2785 41.8916 34.599C42.5821 34.7509 42.8582 34.7677 42.91 34.6159C43.0308 34.2953 44.17 29.3858 44.1355 29.3521C44.1183 29.3352 43.6695 29.2171 43.1517 29.0822C42.3922 28.9135 42.1851 28.7954 42.1505 28.4917C42.0988 28.188 42.2886 28.0024 42.9618 27.5975L43.8248 27.0745L42.3404 24.7632C41.5292 23.4978 40.8387 22.4181 40.8042 22.3843C40.7697 22.3506 40.3554 22.553 39.8894 22.8398C39.1472 23.2785 38.9918 23.3122 38.7329 23.1267C38.4568 22.9242 38.4395 22.8061 38.6121 22.0132C38.7157 21.507 38.7502 21.0515 38.6984 21.0009C38.6294 20.9334 37.4902 20.6466 36.1611 20.3598C34.832 20.0561 33.6238 19.7862 33.4684 19.7356C33.244 19.6849 33.1405 19.8705 32.9851 20.6803C32.7953 21.5745 32.7262 21.6926 32.3638 21.6926C32.0703 21.6926 31.8287 21.4902 31.4662 20.9334C31.2073 20.5116 30.9311 20.1742 30.8621 20.1742C30.793 20.1742 29.999 20.6297 29.1015 21.1865L27.4445 22.1987L26.4606 21.7938C25.9083 21.5745 25.0452 21.2708 24.5274 21.1021L23.5953 20.8153L24.6655 19.8874C28.3765 16.6481 30.1026 11.2325 28.7563 7.08221C27.7379 3.96106 25.097 1.37977 21.9383 0.418118C20.4366 -0.0205307 18.1755 -0.13863 16.7428 0.181923ZM35.9022 21.8782C36.9206 22.0638 36.9551 22.0975 36.8515 22.5193C36.7997 22.7555 36.6962 23.1267 36.6617 23.3122C36.5926 23.599 36.7134 23.7509 37.2313 24.0546C37.5937 24.2739 38.0943 24.6282 38.3359 24.8475L38.802 25.2693L39.5269 24.8644L40.2519 24.4763L40.528 24.8813C40.7007 25.1006 40.9941 25.573 41.2185 25.9273L41.6155 26.5684L40.9078 27.0239C40.4072 27.3444 40.2346 27.5638 40.3037 27.7662C40.3554 27.9349 40.4763 28.5085 40.5626 29.0484C40.7352 30.0438 40.9078 30.28 41.5119 30.2969C42.2541 30.3138 42.3232 30.4993 41.9952 31.7984C41.8053 32.5914 41.6327 32.9794 41.4946 32.9288C41.3738 32.8782 41.0113 32.7938 40.6661 32.7432C40.1311 32.642 40.0447 32.6757 39.8031 33.1481C39.6478 33.4349 39.2853 33.9242 38.9918 34.2616L38.4568 34.8521L38.802 35.3076C38.9746 35.5775 39.1817 35.8644 39.2508 35.9825C39.3543 36.1512 38.7847 36.5898 37.3348 37.4334C37.1967 37.5177 36.9896 37.3153 36.7307 36.8766C36.3682 36.2355 36.2819 36.2018 35.8159 36.303C35.5397 36.3705 34.9183 36.4548 34.435 36.5223C33.5893 36.6236 33.572 36.6404 33.3476 37.4165L33.1232 38.1926L32.1394 37.9564C31.6043 37.8383 31.0519 37.7371 30.9139 37.7202C30.7412 37.7202 30.7067 37.5177 30.793 36.826C30.9139 35.9656 30.8966 35.915 30.4651 35.7294C30.2062 35.6113 29.7056 35.2907 29.3431 35.0039L28.6872 34.4809L27.9968 34.9196L27.3064 35.3414L26.685 34.346C26.3398 33.8061 26.0636 33.2999 26.0636 33.2156C26.0636 33.1481 26.3398 32.9119 26.685 32.6926C27.1856 32.372 27.2891 32.2202 27.2028 31.9334C27.1338 31.7309 27.0302 31.1236 26.9784 30.6006L26.8749 29.6389L26.0636 29.4533L25.2524 29.2677L25.5458 28.053C25.8392 26.7708 25.822 26.7877 26.9439 27.007C27.479 27.1082 27.5653 27.0745 27.7552 26.6696C27.876 26.4165 28.2039 25.9273 28.4974 25.573L29.0324 24.9319L28.6354 24.2402C28.4283 23.869 28.273 23.5316 28.3248 23.4978C28.5664 23.2785 30.4306 22.1819 30.4478 22.2325C30.4823 22.2662 30.6722 22.5699 30.8966 22.9242C31.2073 23.4472 31.3626 23.5484 31.6561 23.4641C31.8459 23.3966 32.4673 23.3122 33.0024 23.2616C33.969 23.1773 34.0035 23.1604 34.1761 22.553C34.2624 22.2156 34.3487 21.8445 34.3487 21.7095C34.3487 21.5914 34.4523 21.5239 34.5904 21.5745C34.7285 21.6251 35.3153 21.7601 35.9022 21.8782Z" fill="white"/>
<path d="M32.6227 25.4548C30.4306 26.0622 29.1533 27.6987 29.1533 29.8919C29.1533 34.6833 35.7123 36.1511 37.9562 31.8827C39.7513 28.4916 36.3682 24.4257 32.6227 25.4548Z" fill="white"/>
</svg>
