<svg width="53" height="26" viewBox="0 0 53 26" fill="none" xmlns="http://www.w3.org/2000/svg">
<path d="M48.7743 11.7039C50.2775 11.9964 51.1768 12.6438 51.8552 16.3478L52.9284 23.0315C53.3147 25.2063 52.0839 26 50.549 26H46.8626C46.8626 22.396 43.9385 19.4643 40.3292 19.4643C36.7199 19.4643 33.7924 22.396 33.7924 26H18.0388C18.0388 22.396 15.113 19.4643 11.5037 19.4643C7.89266 19.4643 4.96771 22.396 4.96771 26H1.91342C0.837659 26 0 25.1867 0 24.1373V2.15947C0 0.962139 0.946434 0 2.10699 0H41.6585C43.1617 0 44.2606 0.74491 44.8036 2.05085L48.7743 11.7047V11.7039ZM35.5902 2.23986V11.3695H46.162L42.4534 2.23986H35.5902ZM26.1327 10.1978V4.59603H20.5226V10.1978H14.9117V15.8005H20.5226V21.4014H26.1327V15.8005H31.7428V10.1978H26.1327Z" fill="#F8F8F8"/>
</svg>
